<?xml version="1.0" standalone="no"?>
<!DOCTYPE svg PUBLIC "-//W3C//DTD SVG 20010904//EN"
 "http://www.w3.org/TR/2001/REC-SVG-20010904/DTD/svg10.dtd">
<svg version="1.0" xmlns="http://www.w3.org/2000/svg"
 width="512.000000pt" height="512.000000pt"  viewBox="0 0 512.000000 512.000000"
 preserveAspectRatio="xMidYMid meet">
   <defs>
    <style>
      .cls-1 {
        fill: white;
        fill-rule: evenodd;
      }
    </style>
  </defs>
<g transform="translate(0.000000,512.000000) scale(0.100000,-0.100000)"
 stroke="none">
<path class="cls-1" d="M1205 5105 c-269 -59 -486 -257 -582 -530 l-28 -80 0 -1935 0 -1935
28 -80 c86 -246 270 -430 512 -513 l80 -27 1345 0 1345 0 80 27 c242 83 426
267 512 513 l28 80 0 1511 0 1511 -42 84 c-65 127 -155 231 -548 628 -533 538
-662 653 -813 724 l-67 32 -895 2 c-712 1 -907 -1 -955 -12z m1651 -405 c41
-26 73 -90 85 -172 5 -35 9 -235 9 -446 0 -322 2 -388 15 -420 21 -49 52 -81
100 -103 37 -17 72 -19 425 -19 216 0 413 -5 449 -10 79 -13 133 -40 163 -82
l23 -33 3 -1325 c1 -888 -1 -1341 -8 -1375 -23 -111 -102 -220 -195 -267 -94
-49 -62 -48 -1365 -48 -1303 0 -1271 -1 -1365 48 -50 25 -131 105 -156 154
-51 100 -49 17 -49 1958 0 1941 -2 1858 49 1958 25 49 106 128 156 154 88 46
91 46 879 47 737 1 749 1 782 -19z"/>
<path class="cls-1" d="M2310 3333 c-88 -37 -131 -111 -138 -232 -8 -144 31 -303 120 -491
57 -121 58 -95 -19 -310 -57 -159 -160 -399 -221 -514 l-47 -90 -140 -71
c-306 -156 -436 -260 -480 -385 -48 -136 82 -275 240 -258 139 16 307 179 476
460 28 46 61 89 75 96 98 51 607 221 729 244 12 2 55 -18 103 -49 158 -98 313
-141 472 -129 118 9 172 29 214 78 82 96 63 249 -41 321 -58 40 -141 57 -276
57 -99 0 -363 -30 -386 -44 -11 -7 -128 106 -201 194 -39 47 -105 136 -147
199 l-76 113 26 117 c47 207 51 234 51 366 1 102 -3 141 -18 183 -22 66 -68
119 -121 143 -49 23 -146 24 -195 2z m231 -1145 c28 -39 85 -108 125 -153 l72
-82 -77 -22 c-43 -11 -142 -43 -219 -69 -78 -27 -142 -48 -142 -47 0 0 22 50
48 110 27 61 68 161 92 223 23 61 44 112 46 112 1 0 26 -32 55 -72z"/>
</g>
</svg>
